<svg data-v-423bf9ae="" xmlns="http://www.w3.org/2000/svg" viewBox="0 0 530 90" class="iconLeft"><!----><!----><!----><g data-v-423bf9ae="" id="6e17e718-45d8-436a-870b-8d6f4b4d75d1" fill="black" transform="matrix(4.535147222295708,0,0,4.535147222295708,99.08099478251233,0.07936724216072832)"><path d="M8.89 5.63L8.89 3.92L0.27 3.92L0.27 5.63L3.49 5.63L3.49 13.58L5.67 13.58L5.67 5.63ZM12.31 5.92C9.83 5.92 8.37 7.52 8.37 9.84C8.37 12.17 9.83 13.78 12.31 13.78C14.77 13.78 16.24 12.17 16.24 9.84C16.24 7.52 14.77 5.92 12.31 5.92ZM12.31 12.26C11.26 12.26 10.63 11.40 10.63 9.84C10.63 8.29 11.26 7.43 12.31 7.43C13.34 7.43 13.97 8.29 13.97 9.84C13.97 11.40 13.34 12.26 12.31 12.26ZM24.93 3.29L22.74 3.29L22.74 7.10L22.25 6.31C21.87 6.08 21.13 5.92 20.51 5.92C18.59 5.92 16.95 7.32 16.95 10.00C16.95 12.21 18.20 13.78 20.26 13.78C21.01 13.78 21.76 13.61 22.18 13.29L22.74 12.46L22.74 13.58L24.93 13.58ZM20.96 12.26C19.92 12.26 19.21 11.34 19.21 9.87C19.21 8.25 19.96 7.43 21.03 7.43C21.85 7.43 22.74 7.99 22.74 9.59L22.74 9.94C22.74 11.65 21.95 12.26 20.96 12.26ZM30.95 13.58L33.10 13.58C32.98 12.75 32.96 12.25 32.96 11.69L32.96 9.42C32.96 8.99 32.94 8.57 32.91 8.22C32.80 6.89 32.00 5.92 29.79 5.92C27.97 5.92 26.53 6.89 26.49 8.60L28.59 8.60C28.64 7.85 29.02 7.43 29.71 7.43C30.37 7.43 30.70 7.80 30.74 8.25C30.77 8.50 30.77 8.69 30.77 8.89L30.77 9.02L30.30 9.02C27.66 9.02 26.22 9.97 26.22 11.59C26.22 13.01 27.36 13.78 28.62 13.78C29.30 13.78 29.93 13.62 30.46 13.29L30.80 12.49ZM29.48 12.26C28.88 12.26 28.48 11.97 28.48 11.41C28.48 10.54 29.41 10.21 30.77 10.32L30.77 10.86C30.77 11.79 30.14 12.26 29.48 12.26ZM42.04 6.12L39.65 6.12L37.95 11.89L36.25 6.12L33.80 6.12L36.86 13.92L36.76 14.15C36.48 14.80 36.06 15.02 35.43 15.02C35.21 15.02 35.01 15.02 34.82 14.99L34.82 16.46C35.13 16.51 35.39 16.52 35.77 16.52C37.39 16.52 38.21 15.90 39.06 13.73ZM45.65 5.92C43.78 5.92 42.55 6.82 42.55 8.27C42.55 9.55 43.46 10.18 44.86 10.53C46.17 10.84 46.65 11.13 46.65 11.66C46.65 12.14 46.23 12.36 45.70 12.36C45.08 12.36 44.58 11.98 44.42 11.28L42.25 11.28C42.45 12.96 43.78 13.78 45.68 13.78C47.43 13.78 48.85 13.05 48.85 11.49C48.85 10.09 47.92 9.49 46.48 9.13C45.15 8.79 44.74 8.51 44.74 8.01C44.74 7.62 45.04 7.32 45.51 7.32C46.06 7.32 46.38 7.67 46.51 8.29L48.68 8.29C48.50 6.93 47.46 5.92 45.65 5.92ZM53.61 3.72C51.73 3.72 50.06 4.77 50.06 6.58C50.06 8.43 51.32 9.11 53.40 9.63C54.71 9.94 55.16 10.40 55.16 11.07C55.16 11.73 54.53 12.15 53.73 12.15C52.85 12.15 52.08 11.68 51.88 10.68L49.67 10.68C49.84 12.77 51.41 13.78 53.77 13.78C55.71 13.78 57.46 12.77 57.46 10.89C57.46 9.37 56.53 8.36 54.40 7.85C52.85 7.49 52.36 7.10 52.36 6.37C52.36 5.67 52.85 5.35 53.54 5.35C54.46 5.35 54.96 5.92 55.08 6.82L57.29 6.82C57.08 5.07 56.01 3.72 53.61 3.72ZM61.21 7.57L62.79 7.57L62.79 6.17L61.21 6.17L61.21 4.30L59.01 4.30L59.01 6.17L57.88 6.17L57.88 7.57L59.01 7.57L59.01 11.00C59.01 11.42 59.01 11.76 59.04 12.14C59.12 13.23 59.65 13.76 61.29 13.76C61.77 13.76 62.20 13.72 62.65 13.65L62.65 12.25C61.53 12.32 61.28 12.15 61.22 11.41C61.21 11.21 61.21 10.96 61.21 10.71ZM67.23 5.92C64.75 5.92 63.29 7.52 63.29 9.84C63.29 12.17 64.75 13.78 67.23 13.78C69.69 13.78 71.16 12.17 71.16 9.84C71.16 7.52 69.69 5.92 67.23 5.92ZM67.23 12.26C66.18 12.26 65.55 11.40 65.55 9.84C65.55 8.29 66.18 7.43 67.23 7.43C68.26 7.43 68.89 8.29 68.89 9.84C68.89 11.40 68.26 12.26 67.23 12.26ZM75.70 5.92C73.58 5.92 71.88 7.35 71.88 9.91C71.88 12.45 73.44 13.78 75.52 13.78C77.46 13.78 78.89 12.81 79.18 10.93L77.01 10.93C76.85 11.80 76.31 12.26 75.64 12.26C74.73 12.26 74.13 11.51 74.13 9.77C74.13 8.19 74.72 7.43 75.64 7.43C76.37 7.43 76.89 7.85 77.04 8.88L79.18 8.88C79.07 7.21 77.78 5.92 75.70 5.92ZM83.13 10.72L85.30 13.58L88.03 13.58L84.76 9.56L87.99 6.12L85.39 6.12L82.56 9.39L82.56 3.29L80.36 3.29L80.36 13.58L82.56 13.58L82.56 11.35ZM91.69 5.92C89.81 5.92 88.58 6.82 88.58 8.27C88.58 9.55 89.49 10.18 90.89 10.53C92.20 10.84 92.68 11.13 92.68 11.66C92.68 12.14 92.26 12.36 91.73 12.36C91.11 12.36 90.61 11.98 90.45 11.28L88.28 11.28C88.48 12.96 89.81 13.78 91.71 13.78C93.46 13.78 94.88 13.05 94.88 11.49C94.88 10.09 93.95 9.49 92.51 9.13C91.18 8.79 90.78 8.51 90.78 8.01C90.78 7.62 91.07 7.32 91.55 7.32C92.09 7.32 92.41 7.67 92.54 8.29L94.71 8.29C94.53 6.93 93.49 5.92 91.69 5.92Z"></path></g><!----><g data-v-423bf9ae="" id="b1a7f232-fb91-4b76-bbd2-1038d3d1eba0" transform="matrix(1.4469454086129736,0,0,1.4469454086129736,-35.10289760002787,-18.810290311968657)" stroke="none" fill="black"><path d="M56.9 26.2h-3.2v-7.5c0-.8-.7-1.5-1.5-1.5s-1.5.7-1.5 1.5v7.5h-3.2c-1.5 0-2.8 1.3-2.8 2.8v15.4c0 1.5 1.3 2.8 2.8 2.8h3.2v2.5c0 .8.7 1.5 1.5 1.5s1.5-.7 1.5-1.5v-2.5h3.2c1.5 0 2.8-1.3 2.8-2.8V29c0-1.5-1.2-2.8-2.8-2.8zm-.2 18h-9v-15h9v15zM36.7 36.1h-3.2v-4.9c0-.8-.7-1.5-1.5-1.5s-1.5.7-1.5 1.5v4.9h-3.2c-1.5 0-2.8 1.3-2.8 2.8v26.5c0 1.5 1.3 2.8 2.8 2.8h3.2v5.5c0 .8.7 1.5 1.5 1.5s1.5-.7 1.5-1.5v-5.5h3.2c1.5 0 2.8-1.3 2.8-2.8V38.9c0-1.5-1.3-2.8-2.8-2.8zm-.2 29.1h-9V39.1h9v26.1zM77.2 38.3H74V14.5c0-.8-.7-1.5-1.5-1.5s-1.5.7-1.5 1.5v23.9h-3.2c-1.5 0-2.8 1.3-2.8 2.8v15.5c0 1.5 1.3 2.8 2.8 2.8H71V63c0 .8.7 1.5 1.5 1.5S74 63.8 74 63v-3.5h3.2c1.5 0 2.8-1.3 2.8-2.8V41.2c0-1.6-1.3-2.9-2.8-2.9zM77 56.5h-9V41.3h9v15.2z"></path></g><!----></svg>