<svg data-v-423bf9ae="" xmlns="http://www.w3.org/2000/svg" viewBox="0 0 53.53698011868002 60" class="icon"><!----><!----><!----><defs data-v-423bf9ae=""><linearGradient data-v-423bf9ae="" gradientTransform="rotate(25)" id="08661bcd-ebba-48e5-9342-e34b229cf492" x1="0%" y1="0%" x2="100%" y2="0%"><stop data-v-423bf9ae="" offset="0%" style="stop-color: rgb(40, 139, 88); stop-opacity: 1;"></stop><stop data-v-423bf9ae="" offset="100%" style="stop-color: rgb(21, 34, 241); stop-opacity: 1;"></stop></linearGradient></defs><g data-v-423bf9ae="" id="fffe754c-7220-418b-8513-c3c2930c47e8" transform="matrix(0.9646302724086491,0,0,0.9646302724086491,-23.63344189570543,-12.54019354131244)" stroke="none" fill="url(#08661bcd-ebba-48e5-9342-e34b229cf492)"><path d="M56.9 26.2h-3.2v-7.5c0-.8-.7-1.5-1.5-1.5s-1.5.7-1.5 1.5v7.5h-3.2c-1.5 0-2.8 1.3-2.8 2.8v15.4c0 1.5 1.3 2.8 2.8 2.8h3.2v2.5c0 .8.7 1.5 1.5 1.5s1.5-.7 1.5-1.5v-2.5h3.2c1.5 0 2.8-1.3 2.8-2.8V29c0-1.5-1.2-2.8-2.8-2.8zm-.2 18h-9v-15h9v15zM36.7 36.1h-3.2v-4.9c0-.8-.7-1.5-1.5-1.5s-1.5.7-1.5 1.5v4.9h-3.2c-1.5 0-2.8 1.3-2.8 2.8v26.5c0 1.5 1.3 2.8 2.8 2.8h3.2v5.5c0 .8.7 1.5 1.5 1.5s1.5-.7 1.5-1.5v-5.5h3.2c1.5 0 2.8-1.3 2.8-2.8V38.9c0-1.5-1.3-2.8-2.8-2.8zm-.2 29.1h-9V39.1h9v26.1zM77.2 38.3H74V14.5c0-.8-.7-1.5-1.5-1.5s-1.5.7-1.5 1.5v23.9h-3.2c-1.5 0-2.8 1.3-2.8 2.8v15.5c0 1.5 1.3 2.8 2.8 2.8H71V63c0 .8.7 1.5 1.5 1.5S74 63.8 74 63v-3.5h3.2c1.5 0 2.8-1.3 2.8-2.8V41.2c0-1.6-1.3-2.9-2.8-2.9zM77 56.5h-9V41.3h9v15.2z"></path></g><!----></svg>
